<svg xmlns="http://www.w3.org/2000/svg" viewBox="0 0 900 520" role="img"><rect width="900" height="520" rx="28" fill="#f5faf8"/><style>text{font-family:Arial,"Noto Sans KR",sans-serif;fill:#173b3a}.t{font-size:28px;font-weight:700}.s{font-size:17px;fill:#5e7470}.l{font-size:18px;font-weight:700}.m{font-size:15px}.box{fill:#fff;stroke:#c9ddd8;stroke-width:2}.line{stroke:#5a7772;stroke-width:2;fill:none}.arrow{stroke:#2f7d73;stroke-width:4;fill:none;marker-end:url(#a)}.bone{fill:#f4dfb9;stroke:#9c7649;stroke-width:4}.cart{fill:#8fd3c7;stroke:#31796f;stroke-width:3}.soft{fill:#eaa49b;stroke:#9a5148;stroke-width:3}.organ{fill:#d97774;stroke:#8e4b49;stroke-width:4}.blue{fill:#8fc4df;stroke:#467a96;stroke-width:3}.green{fill:#9bd5c7;stroke:#3c7b70;stroke-width:3}.gold{fill:#f3c876;stroke:#9c7635;stroke-width:3}</style><defs><marker id="a" viewBox="0 0 10 10" refX="9" refY="5" markerWidth="7" markerHeight="7" orient="auto-start-reverse"><path d="M0 0L10 5L0 10Z" fill="#2f7d73"/></marker></defs><text x="42" y="48" class="t">심장: 네 개의 방이 혈액을 순서대로 보냅니다</text><text x="42" y="76" class="s">오른쪽은 폐로, 왼쪽은 온몸으로 혈액을 보내는 기본 흐름</text>
<rect x="46" y="108" width="520" height="330" rx="22" class="box"/>
<path d="M300 154 C240 105 175 148 180 221 C186 312 300 393 300 393 C300 393 414 312 420 221 C425 148 360 105 300 154Z" fill="#f5c8c3" stroke="#9b5b55" stroke-width="5"/>
<path d="M300 160 V374" stroke="#fff" stroke-width="6"/>
<path d="M198 250 H402" stroke="#fff" stroke-width="6"/>
<text x="215" y="217" class="l">우심방</text><text x="330" y="217" class="l">좌심방</text><text x="215" y="310" class="l">우심실</text><text x="330" y="310" class="l">좌심실</text>
<path d="M242 324 C140 360 118 250 136 188" class="arrow"/><text x="74" y="164" class="m">몸에서 돌아옴</text>
<path d="M238 330 C207 404 110 398 92 330" class="arrow"/><text x="72" y="421" class="m">폐로 보냄</text>
<path d="M360 326 C442 378 531 325 536 244" class="arrow"/><text x="442" y="396" class="m">온몸으로 보냄</text>
<rect x="594" y="120" width="264" height="90" rx="18" class="box"/><text x="616" y="151" class="l">심방</text><text x="616" y="181" class="m">혈액을 받아들이는 위쪽 방</text>
<rect x="594" y="230" width="264" height="90" rx="18" class="box"/><text x="616" y="261" class="l">심실</text><text x="616" y="291" class="m">혈액을 밀어내는 아래쪽 방</text>
<rect x="594" y="340" width="264" height="78" rx="18" class="box"/><text x="616" y="371" class="l">맥박</text><text x="616" y="399" class="m">심장이 수축할 때 느껴지는 박동</text><text x="42" y="494" class="s">교육용 단순화 도식 · 실제 검사 영상이나 사람마다 구조는 다를 수 있습니다.</text></svg>